# This file uses centimeters as units for non-parametric coordinates.

mtllib SkyboxTest.mtl
g default
v -15.000020 -15.000000 15.000000
v 14.999980 -15.000000 15.000000
v -15.000020 15.000000 15.000000
v 14.999980 15.000000 15.000000
v -15.000020 15.000000 -15.000000
v 14.999980 15.000000 -15.000000
v -15.000020 -15.000000 -15.000000
v 14.999980 -15.000000 -15.000000
vt 0.000000 0.000000
vt 1.000000 0.000000
vt 0.000000 1.000000
vt 1.000000 1.000000
vt 0.000000 0.000000
vt 1.000000 0.000000
vt 0.000000 1.000000
vt 1.000000 1.000000
vt 0.000000 1.000000
vt 1.000000 1.000000
vt 1.000000 0.000000
vt 0.000000 0.000000
vt 1.000000 1.000000
vt 0.000000 1.000000
vt 0.000000 0.000000
vt 1.000000 0.000000
vt 0.000000 1.000000
vt 1.000000 1.000000
vt 0.000000 1.000000
vt 1.000000 1.000000
vt 0.000000 0.000000
vt 1.000000 0.000000
vt 0.000000 0.000000
vt 1.000000 0.000000
vn 0.000000 0.000000 -1.000000
vn 0.000000 0.000000 -1.000000
vn 0.000000 0.000000 -1.000000
vn 0.000000 0.000000 -1.000000
vn 0.000000 -1.000000 0.000000
vn 0.000000 -1.000000 0.000000
vn 0.000000 -1.000000 0.000000
vn 0.000000 -1.000000 0.000000
vn 0.000000 0.000000 1.000000
vn 0.000000 0.000000 1.000000
vn 0.000000 0.000000 1.000000
vn 0.000000 0.000000 1.000000
vn 0.000000 1.000000 0.000000
vn 0.000000 1.000000 0.000000
vn 0.000000 1.000000 0.000000
vn 0.000000 1.000000 0.000000
vn -1.000000 0.000000 0.000000
vn -1.000000 0.000000 0.000000
vn -1.000000 0.000000 0.000000
vn -1.000000 0.000000 0.000000
vn 1.000000 0.000000 0.000000
vn 1.000000 0.000000 0.000000
vn 1.000000 0.000000 0.000000
vn 1.000000 0.000000 0.000000
s 1
g pCube1
usemtl initialShadingGroup
f 1/15/1 3/17/2 2/16/3
f 3/17/2 4/18/4 2/16/3
s 2
f 3/5/5 5/7/6 4/6/7
f 5/7/6 6/8/8 4/6/7
s 3
f 5/19/9 7/21/10 6/20/11
f 7/21/10 8/22/12 6/20/11
s 4
f 7/9/13 1/23/14 8/10/15
f 1/23/14 2/24/16 8/10/15
s 5
f 2/1/17 4/3/18 8/2/19
f 4/3/18 6/4/20 8/2/19
s 6
f 7/11/21 5/13/22 1/12/23
f 5/13/22 3/14/24 1/12/23
