# This file uses centimeters as units for non-parametric coordinates.

mtllib ThorHammer.mtl
g default
v -0.566669 3.122258 0.500000
v 0.566669 3.122258 0.500000
v -0.566669 4.122258 0.500000
v 0.566669 4.122258 0.500000
v -0.566669 4.122258 -0.500000
v 0.566669 4.122258 -0.500000
v -0.566669 3.122258 -0.500000
v 0.566669 3.122258 -0.500000
v 0.740654 3.213924 -0.408333
v 0.740654 3.213924 0.408333
v 0.740654 4.030591 -0.408333
v 0.740654 4.030591 0.408333
v -0.740654 3.213924 -0.408333
v -0.740654 3.213924 0.408333
v -0.740654 4.030591 0.408333
v -0.740654 4.030591 -0.408333
v -0.132223 3.122258 -0.116667
v 0.132223 3.122258 -0.116667
v 0.132223 3.122258 0.116667
v -0.132223 3.122258 0.116667
v -0.132223 1.550634 -0.116667
v 0.132223 1.550634 -0.116667
v 0.132223 1.550634 0.116667
v -0.132223 1.550634 0.116667
vt 0.070306 0.264380
vt 0.352832 0.264380
vt 0.352832 0.475662
vt 0.070306 0.475662
vt 0.070306 0.475662
vt 0.352832 0.475662
vt 0.352832 0.264380
vt 0.070306 0.264380
vt 0.703589 0.712252
vt 0.703589 0.903117
vt 0.752197 0.885621
vt 0.752197 0.729748
vt 0.703589 0.903117
vt 0.703589 0.712252
vt 0.752197 0.729748
vt 0.752197 0.885621
vt 0.413649 0.908989
vt 0.416639 0.715659
vt 0.465433 0.733738
vt 0.462991 0.891623
vt 0.416639 0.715659
vt 0.413649 0.908989
vt 0.462991 0.891623
vt 0.465433 0.733738
vt 0.471194 0.722309
vt 0.639237 0.722309
vt 0.639237 0.890352
vt 0.471194 0.890352
vt 0.639237 0.722309
vt 0.471194 0.722309
vt 0.471194 0.890352
vt 0.639237 0.890352
vt 0.459032 0.947869
vt 0.654590 0.946921
vt 0.636549 0.898283
vt 0.476843 0.899056
vt 0.654590 0.946921
vt 0.459032 0.947869
vt 0.476843 0.899056
vt 0.636549 0.898283
vt 0.655340 0.674721
vt 0.459782 0.675669
vt 0.477823 0.724308
vt 0.637529 0.723534
vt 0.459782 0.675669
vt 0.655340 0.674721
vt 0.637529 0.723534
vt 0.477823 0.724308
vt 0.100729 0.668491
vt 0.348800 0.668491
vt 0.348800 0.887377
vt 0.100729 0.887377
vt 0.411216 0.616451
vt 0.540214 0.616451
vt 0.540214 0.040853
vt 0.411216 0.040853
vt 0.540214 0.616451
vt 0.411216 0.616451
vt 0.411216 0.040853
vt 0.540214 0.040853
vt 0.658567 0.614868
vt 0.541114 0.614868
vt 0.541114 0.039738
vt 0.658567 0.039738
vt 0.541114 0.614868
vt 0.658567 0.614868
vt 0.658567 0.039738
vt 0.541114 0.039738
vt 0.107641 0.223143
vt 0.309711 0.223143
vt 0.230982 0.153677
vt 0.186370 0.153677
vt 0.309711 0.041926
vt 0.230982 0.111393
vt 0.107641 0.041926
vt 0.186370 0.111393
vt 0.747946 0.171896
vt 0.840021 0.171896
vt 0.840021 0.090653
vt 0.747946 0.090653
vn -0.046706 0.000000 0.998909
vn 0.046706 0.000000 0.998909
vn -0.046706 0.000000 0.998909
vn -0.046706 0.000000 0.998909
vn 0.046706 0.000000 0.998909
vn 0.046706 0.000000 0.998909
vn -0.046706 0.998909 0.000000
vn 0.046706 0.998909 0.000000
vn -0.046706 0.998909 0.000000
vn -0.046706 0.998909 0.000000
vn 0.046706 0.998909 0.000000
vn 0.046706 0.998909 0.000000
vn -0.046706 0.000000 -0.998909
vn 0.046706 0.000000 -0.998909
vn -0.046706 0.000000 -0.998909
vn -0.046706 0.000000 -0.998909
vn 0.046706 0.000000 -0.998909
vn 0.046706 0.000000 -0.998909
vn 0.000000 -1.000000 0.000000
vn 0.000000 -1.000000 0.000000
vn 0.000000 -1.000000 0.000000
vn 0.000000 -1.000000 0.000000
vn 0.000000 -1.000000 0.000000
vn 0.000000 -1.000000 0.000000
vn 1.000000 0.000000 0.000000
vn 1.000000 0.000000 0.000000
vn 1.000000 0.000000 0.000000
vn 1.000000 0.000000 0.000000
vn 1.000000 0.000000 0.000000
vn 1.000000 0.000000 0.000000
vn -1.000000 0.000000 0.000000
vn -1.000000 0.000000 0.000000
vn -1.000000 0.000000 0.000000
vn -1.000000 0.000000 0.000000
vn -1.000000 0.000000 0.000000
vn -1.000000 0.000000 0.000000
vn 0.151942 -0.988389 0.000000
vn 0.151943 -0.988389 -0.000000
vn 0.466126 -0.884718 0.000000
vn 0.466126 -0.884718 0.000000
vn 0.151943 -0.988389 -0.000000
vn 0.466126 -0.884718 0.000000
vn 0.046706 0.000000 -0.998909
vn 0.046706 0.000000 -0.998909
vn 0.466126 0.000000 -0.884718
vn 0.466126 0.000000 -0.884718
vn 0.046706 0.000000 -0.998909
vn 0.466126 0.000000 -0.884718
vn 0.046706 0.998909 0.000000
vn 0.046706 0.998909 0.000000
vn 0.466124 0.884719 0.000000
vn 0.466124 0.884719 0.000000
vn 0.046706 0.998909 0.000000
vn 0.466124 0.884719 0.000000
vn 0.046706 0.000000 0.998909
vn 0.046706 0.000000 0.998909
vn 0.466126 0.000000 0.884718
vn 0.466126 0.000000 0.884718
vn 0.046706 0.000000 0.998909
vn 0.466126 0.000000 0.884718
vn -0.151943 -0.988389 -0.000000
vn -0.151943 -0.988389 0.000000
vn -0.466126 -0.884718 0.000000
vn -0.466126 -0.884718 0.000000
vn -0.151943 -0.988389 0.000000
vn -0.466126 -0.884718 0.000000
vn -0.046706 0.000000 0.998909
vn -0.046706 0.000000 0.998909
vn -0.466126 0.000000 0.884718
vn -0.466126 0.000000 0.884718
vn -0.046706 0.000000 0.998909
vn -0.466126 0.000000 0.884718
vn -0.046706 0.998909 0.000000
vn -0.046706 0.998909 0.000000
vn -0.466124 0.884719 0.000000
vn -0.466124 0.884719 0.000000
vn -0.046706 0.998909 0.000000
vn -0.466124 0.884719 0.000000
vn -0.046706 0.000000 -0.998909
vn -0.046706 0.000000 -0.998909
vn -0.466126 0.000000 -0.884718
vn -0.466126 0.000000 -0.884718
vn -0.046706 0.000000 -0.998909
vn -0.466126 0.000000 -0.884718
vn -0.151943 -0.988389 -0.000000
vn 0.151943 -0.988389 -0.000000
vn 0.000000 -1.000000 -0.000000
vn 0.000000 -1.000000 -0.000000
vn 0.151943 -0.988389 -0.000000
vn 0.000000 -1.000000 -0.000000
vn 0.151943 -0.988389 -0.000000
vn 0.151942 -0.988389 0.000000
vn 0.000000 -1.000000 -0.000000
vn 0.000000 -1.000000 -0.000000
vn 0.151942 -0.988389 0.000000
vn 0.000000 -1.000000 0.000000
vn 0.151942 -0.988389 0.000000
vn -0.151943 -0.988389 0.000000
vn 0.000000 -1.000000 0.000000
vn 0.000000 -1.000000 0.000000
vn -0.151943 -0.988389 0.000000
vn 0.000000 -1.000000 0.000000
vn -0.151943 -0.988389 0.000000
vn -0.151943 -0.988389 -0.000000
vn 0.000000 -1.000000 0.000000
vn 0.000000 -1.000000 0.000000
vn -0.151943 -0.988389 -0.000000
vn 0.000000 -1.000000 -0.000000
vn 0.000000 0.000000 -1.000000
vn 0.000000 0.000000 -1.000000
vn 0.000000 0.000000 -1.000000
vn 0.000000 0.000000 -1.000000
vn 0.000000 0.000000 -1.000000
vn 0.000000 0.000000 -1.000000
vn 1.000000 0.000000 0.000000
vn 1.000000 0.000000 0.000000
vn 1.000000 0.000000 0.000000
vn 1.000000 0.000000 0.000000
vn 1.000000 0.000000 0.000000
vn 1.000000 0.000000 0.000000
vn 0.000000 0.000000 1.000000
vn 0.000000 0.000000 1.000000
vn 0.000000 0.000000 1.000000
vn 0.000000 0.000000 1.000000
vn 0.000000 0.000000 1.000000
vn 0.000000 0.000000 1.000000
vn -1.000000 0.000000 0.000000
vn -1.000000 0.000000 0.000000
vn -1.000000 0.000000 0.000000
vn -1.000000 0.000000 0.000000
vn -1.000000 0.000000 0.000000
vn -1.000000 0.000000 0.000000
s off
g pCube3
usemtl pCube3SG
f 1/1/1 2/2/2 3/4/3
f 3/4/4 2/2/5 4/3/6
f 3/49/7 4/50/8 5/52/9
f 5/52/10 4/50/11 6/51/12
f 5/5/13 6/6/14 7/8/15
f 7/8/16 6/6/17 8/7/18
f 21/77/19 22/78/20 24/80/21
f 24/80/22 22/78/23 23/79/24
f 10/25/25 9/26/26 12/28/27
f 12/28/28 9/26/29 11/27/30
f 13/29/31 14/30/32 16/32/33
f 16/32/34 14/30/35 15/31/36
f 2/33/37 8/34/38 10/36/39
f 10/36/40 8/34/41 9/35/42
f 8/9/43 6/10/44 9/12/45
f 9/12/46 6/10/47 11/11/48
f 6/37/49 4/38/50 11/40/51
f 11/40/52 4/38/53 12/39/54
f 4/13/55 2/14/56 12/16/57
f 12/16/58 2/14/59 10/15/60
f 7/41/61 1/42/62 13/44/63
f 13/44/64 1/42/65 14/43/66
f 1/17/67 3/18/68 14/20/69
f 14/20/70 3/18/71 15/19/72
f 3/45/73 5/46/74 15/48/75
f 15/48/76 5/46/77 16/47/78
f 5/21/79 7/22/80 16/24/81
f 16/24/82 7/22/83 13/23/84
f 7/69/85 8/70/86 17/72/87
f 17/72/88 8/70/89 18/71/90
f 8/70/91 2/73/92 18/71/93
f 18/71/94 2/73/95 19/74/96
f 2/73/97 1/75/98 19/74/99
f 19/74/100 1/75/101 20/76/102
f 1/75/103 7/69/104 20/76/105
f 20/76/106 7/69/107 17/72/108
f 17/53/109 18/54/110 21/56/111
f 21/56/112 18/54/113 22/55/114
f 18/61/115 19/62/116 22/64/117
f 22/64/118 19/62/119 23/63/120
f 19/57/121 20/58/122 23/60/123
f 23/60/124 20/58/125 24/59/126
f 20/65/127 17/66/128 24/68/129
f 24/68/130 17/66/131 21/67/132
